<svg width="45" height="51" viewBox="0 0 45 51" fill="none" xmlns="http://www.w3.org/2000/svg">
<g clip-path="url(#clip0_233_207)">
<path d="M26.5495 25.5517C28.1361 15.782 44.9998 2.79926 44.9998 2.79926C15.1453 -4.90211 3.35317 5.37098 0.949008 8.83901C-1.45515 12.307 1.44093 14.5202 1.44093 14.5202C1.44093 14.5202 20.0991 30.5848 25.0183 34.2183C29.9375 37.8518 34.3647 42.2231 34.5102 45.4567C34.5102 45.5877 34.5102 45.7118 34.5102 45.8359C34.3578 47.0011 33.9559 48.3042 33.2146 49.7728C32.986 50.1727 32.7365 50.5863 32.4455 51.0069C32.4455 51.0069 32.695 50.8001 33.0206 50.3864C33.9352 49.9796 38.6603 47.532 38.9513 40.7545C39.2562 33.6116 34.9259 30.3573 26.5425 25.5586L26.5495 25.5517Z" fill="#004FFF"/>
</g>
<defs>
<clipPath id="clip0_233_207">
<rect width="45" height="51" fill="white"/>
</clipPath>
</defs>
</svg>
