<svg width="96" height="111" viewBox="0 0 96 111" fill="none" xmlns="http://www.w3.org/2000/svg">
<g clip-path="url(#clip0_137_249)">
<path d="M70.1044 109.815C70.1044 109.815 82.4314 105.028 83.1113 88.6859C83.7912 72.3443 73.5778 65.3665 53.8605 53.9919C53.8605 53.9919 47.224 63.0255 59.9058 77.4464C65.2416 83.5089 80.8499 90.0965 70.1044 109.8V109.815Z" fill="url(#paint0_linear_137_249)"/>
<path d="M69.2323 111C69.2323 111 74.0064 106.993 73.6369 98.9201C73.3118 91.8822 63.8817 82.3684 53.3875 74.4602C42.8933 66.5519 3.07434 31.6028 3.07434 31.6028C3.07434 31.6028 -3.08917 26.8008 2.02492 19.2378C7.13901 11.6747 32.3104 -10.6694 96 6.09244C96 6.09244 57.4817 36.3597 56.4028 57.8184C55.7081 71.624 68.0794 80.1024 72.5432 90.5617C75.0263 96.369 74.6716 102.912 69.2323 111.015V111Z" fill="url(#paint1_linear_137_249)"/>
</g>
<defs>
<linearGradient id="paint0_linear_137_249" x1="52.0573" y1="63.0856" x2="77.1793" y2="93.7012" gradientUnits="userSpaceOnUse">
<stop stop-color="white"/>
<stop offset="1" stop-color="#004FFF"/>
</linearGradient>
<linearGradient id="paint1_linear_137_249" x1="79.5935" y1="0.210057" x2="46.9304" y2="47.1832" gradientUnits="userSpaceOnUse">
<stop stop-color="white"/>
<stop offset="1" stop-color="#004FFF"/>
</linearGradient>
<clipPath id="clip0_137_249">
<rect width="96" height="111" fill="white"/>
</clipPath>
</defs>
</svg>
